<mxfile host="app.diagrams.net" modified="2022-05-18T14:33:58.760Z" agent="5.0 (Windows NT 10.0; Win64; x64) AppleWebKit/537.36 (KHTML, like Gecko) Chrome/101.0.4951.54 Safari/537.36" etag="tmACm54pNaJsfzwBPWBB" version="18.0.3" type="github">
  <diagram id="aNkTvLlGlRAXNMfGRCiO" name="Page-1">
    <mxGraphModel dx="1550" dy="867" grid="1" gridSize="10" guides="1" tooltips="1" connect="1" arrows="1" fold="1" page="1" pageScale="1" pageWidth="1169" pageHeight="827" math="0" shadow="0">
      <root>
        <mxCell id="0" />
        <mxCell id="1" parent="0" />
        <mxCell id="K40myK_4YShfCYtrGLyM-10" value="" style="endArrow=classic;html=1;rounded=0;fontSize=17;fontStyle=1;entryX=0.5;entryY=0;entryDx=0;entryDy=0;exitX=0.5;exitY=1;exitDx=0;exitDy=0;" parent="1" target="xhpi5mrGCT5Js5KXu3N3-19" edge="1" source="xhpi5mrGCT5Js5KXu3N3-18">
          <mxGeometry width="50" height="50" relative="1" as="geometry">
            <mxPoint x="548.2762852643461" y="199.22120326499515" as="sourcePoint" />
            <mxPoint x="505.4646784920065" y="271.798544520534" as="targetPoint" />
          </mxGeometry>
        </mxCell>
        <mxCell id="K40myK_4YShfCYtrGLyM-12" value="" style="endArrow=classic;html=1;rounded=0;fontSize=17;fontStyle=1;entryX=0.5;entryY=0;entryDx=0;entryDy=0;exitX=0.75;exitY=1;exitDx=0;exitDy=0;" parent="1" target="xhpi5mrGCT5Js5KXu3N3-20" edge="1" source="xhpi5mrGCT5Js5KXu3N3-18">
          <mxGeometry width="50" height="50" relative="1" as="geometry">
            <mxPoint x="578.2444100049839" y="199.22120326499515" as="sourcePoint" />
            <mxPoint x="621.0560167773234" y="271.798544520534" as="targetPoint" />
          </mxGeometry>
        </mxCell>
        <mxCell id="K40myK_4YShfCYtrGLyM-14" value="" style="endArrow=classic;html=1;rounded=0;entryX=0.5;entryY=0;entryDx=0;entryDy=0;exitX=0.25;exitY=1;exitDx=0;exitDy=0;fontSize=18;fontStyle=1" parent="1" target="xhpi5mrGCT5Js5KXu3N3-21" edge="1">
          <mxGeometry width="50" height="50" relative="1" as="geometry">
            <mxPoint x="603.9313740683878" y="257.90876197341413" as="sourcePoint" />
            <mxPoint x="569.6820886505159" y="286.93969847562965" as="targetPoint" />
          </mxGeometry>
        </mxCell>
        <mxCell id="K40myK_4YShfCYtrGLyM-16" value="ChodDo&lt;br style=&quot;font-size: 17px;&quot;&gt;Krytu&lt;br style=&quot;font-size: 17px;&quot;&gt;Sekvencia" style="rounded=1;whiteSpace=wrap;html=1;fontSize=18;fontStyle=1;fillColor=#FFD966;" parent="1" vertex="1">
          <mxGeometry x="515.84" y="357.91" width="102.75" height="73.22" as="geometry" />
        </mxCell>
        <mxCell id="K40myK_4YShfCYtrGLyM-17" value="" style="endArrow=classic;html=1;rounded=0;exitX=0.75;exitY=1;exitDx=0;exitDy=0;entryX=0.5;entryY=0;entryDx=0;entryDy=0;fontSize=17;fontStyle=1;" parent="1" target="xhpi5mrGCT5Js5KXu3N3-22" edge="1" source="xhpi5mrGCT5Js5KXu3N3-20">
          <mxGeometry width="50" height="50" relative="1" as="geometry">
            <mxPoint x="655.3053021951954" y="257.90876197341413" as="sourcePoint" />
            <mxPoint x="699.7951239530105" y="288.4202762372428" as="targetPoint" />
          </mxGeometry>
        </mxCell>
        <mxCell id="K40myK_4YShfCYtrGLyM-18" value="" style="endArrow=classic;html=1;rounded=0;entryX=0.5;entryY=0;entryDx=0;entryDy=0;exitX=0.25;exitY=1;exitDx=0;exitDy=0;fontSize=18;fontStyle=1" parent="1" source="K40myK_4YShfCYtrGLyM-16" target="K40myK_4YShfCYtrGLyM-19" edge="1">
          <mxGeometry width="50" height="50" relative="1" as="geometry">
            <mxPoint x="549.14324932775" y="445.00625399113807" as="sourcePoint" />
            <mxPoint x="502.0504818781762" y="517.583595246677" as="targetPoint" />
          </mxGeometry>
        </mxCell>
        <mxCell id="K40myK_4YShfCYtrGLyM-19" value="VolnyKryt" style="rounded=1;whiteSpace=wrap;html=1;fontSize=18;fontStyle=1;fillColor=#FFD966;" parent="1" vertex="1">
          <mxGeometry x="451.57" y="447.25000000000006" width="102.75" height="70" as="geometry" />
        </mxCell>
        <mxCell id="K40myK_4YShfCYtrGLyM-20" value="ChodDo&lt;br style=&quot;font-size: 17px;&quot;&gt;Krytu" style="rounded=1;whiteSpace=wrap;html=1;fontSize=18;fontStyle=1;fillColor=#FFD966;" parent="1" vertex="1">
          <mxGeometry x="571.44" y="447.25000000000006" width="111.41" height="70" as="geometry" />
        </mxCell>
        <mxCell id="K40myK_4YShfCYtrGLyM-21" value="" style="endArrow=classic;html=1;rounded=0;entryX=0.5;entryY=0;entryDx=0;entryDy=0;exitX=0.75;exitY=1;exitDx=0;exitDy=0;fontSize=18;fontStyle=1" parent="1" source="K40myK_4YShfCYtrGLyM-16" target="K40myK_4YShfCYtrGLyM-20" edge="1">
          <mxGeometry width="50" height="50" relative="1" as="geometry">
            <mxPoint x="579.1113740683878" y="445.00625399113807" as="sourcePoint" />
            <mxPoint x="532.018606618814" y="517.583595246677" as="targetPoint" />
          </mxGeometry>
        </mxCell>
        <mxCell id="xhpi5mrGCT5Js5KXu3N3-7" value="" style="endArrow=classic;html=1;rounded=0;exitX=0.25;exitY=1;exitDx=0;exitDy=0;entryX=0.5;entryY=0;entryDx=0;entryDy=0;fontSize=18;fontStyle=1" parent="1" target="xhpi5mrGCT5Js5KXu3N3-8" edge="1">
          <mxGeometry width="50" height="50" relative="1" as="geometry">
            <mxPoint x="794.7858088710972" y="431.1262539911382" as="sourcePoint" />
            <mxPoint x="764.9613884238586" y="460.15719049335354" as="targetPoint" />
          </mxGeometry>
        </mxCell>
        <mxCell id="xhpi5mrGCT5Js5KXu3N3-17" value="SelektorKoren" style="rounded=1;whiteSpace=wrap;html=1;fontSize=18;fontStyle=1;fillColor=#FFD966;" parent="1" vertex="1">
          <mxGeometry x="516.38" width="130" height="87.09" as="geometry" />
        </mxCell>
        <mxCell id="xhpi5mrGCT5Js5KXu3N3-8" value="NaDosah" style="rounded=1;whiteSpace=wrap;html=1;fontSize=18;fontStyle=1;fillColor=#FFD966;" parent="1" vertex="1">
          <mxGeometry x="708.2600000000001" y="447.25000000000006" width="102.75" height="70" as="geometry" />
        </mxCell>
        <mxCell id="xhpi5mrGCT5Js5KXu3N3-9" value="" style="endArrow=classic;html=1;rounded=0;exitX=0.75;exitY=1;exitDx=0;exitDy=0;entryX=0.5;entryY=0;entryDx=0;entryDy=0;fontSize=18;fontStyle=1" parent="1" target="xhpi5mrGCT5Js5KXu3N3-10" edge="1">
          <mxGeometry width="50" height="50" relative="1" as="geometry">
            <mxPoint x="846.159736997905" y="431.1262539911382" as="sourcePoint" />
            <mxPoint x="897.6773694181117" y="509.5097825471201" as="targetPoint" />
          </mxGeometry>
        </mxCell>
        <mxCell id="xhpi5mrGCT5Js5KXu3N3-10" value="Prenasleduj" style="rounded=1;whiteSpace=wrap;html=1;fontSize=18;fontStyle=1;fillColor=#FFD966;" parent="1" vertex="1">
          <mxGeometry x="833.46" y="447.25000000000006" width="102.75" height="70" as="geometry" />
        </mxCell>
        <mxCell id="K40myK_4YShfCYtrGLyM-30" value="" style="endArrow=classic;html=1;rounded=0;exitX=0.75;exitY=1;exitDx=0;exitDy=0;entryX=0.5;entryY=0;entryDx=0;entryDy=0;fontSize=18;fontStyle=1" parent="1" target="K40myK_4YShfCYtrGLyM-31" edge="1" source="xhpi5mrGCT5Js5KXu3N3-17">
          <mxGeometry width="50" height="50" relative="1" as="geometry">
            <mxPoint x="809.7154822761323" y="87.0928095066465" as="sourcePoint" />
            <mxPoint x="933.8691419159172" y="159.67015076218524" as="targetPoint" />
          </mxGeometry>
        </mxCell>
        <mxCell id="K40myK_4YShfCYtrGLyM-9" value="" style="endArrow=classic;html=1;rounded=0;entryX=0.5;entryY=0;entryDx=0;entryDy=0;exitX=0.422;exitY=1.011;exitDx=0;exitDy=0;fontSize=17;fontStyle=1;exitPerimeter=0;" parent="1" target="xhpi5mrGCT5Js5KXu3N3-18" edge="1" source="xhpi5mrGCT5Js5KXu3N3-17">
          <mxGeometry width="50" height="50" relative="1" as="geometry">
            <mxPoint x="771.1850361810268" y="87.0928095066465" as="sourcePoint" />
            <mxPoint x="514.3153955469891" y="159.67015076218524" as="targetPoint" />
          </mxGeometry>
        </mxCell>
        <mxCell id="xhpi5mrGCT5Js5KXu3N3-19" value="Zdravie" style="rounded=1;whiteSpace=wrap;html=1;fontSize=18;fontStyle=1;fillColor=#FFD966;" parent="1" vertex="1">
          <mxGeometry x="468.68999999999994" y="192.44" width="102.75" height="65.47" as="geometry" />
        </mxCell>
        <mxCell id="xhpi5mrGCT5Js5KXu3N3-20" value="SkusNajst&lt;br style=&quot;font-size: 18px;&quot;&gt;Krytie&lt;br style=&quot;font-size: 18px;&quot;&gt;Selektor" style="rounded=1;whiteSpace=wrap;html=1;fontSize=18;fontStyle=1;fillColor=#FFD966;" parent="1" vertex="1">
          <mxGeometry x="586.78" y="192.44" width="102.75" height="65.47" as="geometry" />
        </mxCell>
        <mxCell id="xhpi5mrGCT5Js5KXu3N3-21" value="JeKryty" style="rounded=1;whiteSpace=wrap;html=1;fontSize=18;fontStyle=1;fillColor=#FFD966;" parent="1" vertex="1">
          <mxGeometry x="526.78" y="267.91" width="102.75" height="69.34" as="geometry" />
        </mxCell>
        <mxCell id="xhpi5mrGCT5Js5KXu3N3-22" value="NajdiKryt&lt;br style=&quot;font-size: 18px;&quot;&gt;Selektor" style="rounded=1;whiteSpace=wrap;html=1;fontSize=18;fontStyle=1;fillColor=#FFD966;" parent="1" vertex="1">
          <mxGeometry x="642.5099999999999" y="267.91" width="102.75" height="69.34" as="geometry" />
        </mxCell>
        <mxCell id="xhpi5mrGCT5Js5KXu3N3-2" value="" style="endArrow=classic;html=1;rounded=0;entryX=0.5;entryY=0;entryDx=0;entryDy=0;exitX=0.25;exitY=1;exitDx=0;exitDy=0;fontSize=18;fontStyle=1" parent="1" source="xhpi5mrGCT5Js5KXu3N3-22" target="K40myK_4YShfCYtrGLyM-16" edge="1">
          <mxGeometry width="50" height="50" relative="1" as="geometry">
            <mxPoint x="680.9922662585989" y="374.03250798227623" as="sourcePoint" />
            <mxPoint x="625.3371774545574" y="446.6098492378148" as="targetPoint" />
          </mxGeometry>
        </mxCell>
        <mxCell id="K40myK_4YShfCYtrGLyM-22" value="" style="endArrow=classic;html=1;rounded=0;exitX=0.75;exitY=1;exitDx=0;exitDy=0;entryX=0.5;entryY=0;entryDx=0;entryDy=0;fontSize=17;fontStyle=1" parent="1" target="k9KmUfYsGlUjubeCrhGL-1" edge="1" source="xhpi5mrGCT5Js5KXu3N3-17">
          <mxGeometry width="50" height="50" relative="1" as="geometry">
            <mxPoint x="784.0285182127286" y="87.0928095066465" as="sourcePoint" />
            <mxPoint x="792.5908395671966" y="159.67015076218524" as="targetPoint" />
          </mxGeometry>
        </mxCell>
        <mxCell id="k9KmUfYsGlUjubeCrhGL-4" value="" style="endArrow=classic;html=1;rounded=0;exitX=0.5;exitY=1;exitDx=0;exitDy=0;entryX=0.5;entryY=0;entryDx=0;entryDy=0;fontSize=18;fontStyle=1" parent="1" source="k9KmUfYsGlUjubeCrhGL-1" target="k9KmUfYsGlUjubeCrhGL-5" edge="1">
          <mxGeometry width="50" height="50" relative="1" as="geometry">
            <mxPoint x="878.1304659765246" y="220.05120326499514" as="sourcePoint" />
            <mxPoint x="852.443501913121" y="292.628544520534" as="targetPoint" />
          </mxGeometry>
        </mxCell>
        <mxCell id="ezsD9pAWtwarLcvP3t45-3" value="Dostihnutie&lt;br style=&quot;font-size: 17px;&quot;&gt;Sekvencia" style="rounded=1;whiteSpace=wrap;html=1;fontSize=18;fontStyle=1;fillColor=#FFD966;" parent="1" vertex="1">
          <mxGeometry x="770.86" y="357.91" width="102.75" height="73.22" as="geometry" />
        </mxCell>
        <mxCell id="xhpi5mrGCT5Js5KXu3N3-5" value="" style="endArrow=classic;html=1;rounded=0;exitX=0.7;exitY=1.003;exitDx=0;exitDy=0;entryX=0.5;entryY=0;entryDx=0;entryDy=0;fontSize=18;fontStyle=1;exitPerimeter=0;" parent="1" source="xhpi5mrGCT5Js5KXu3N3-22" edge="1" target="ezsD9pAWtwarLcvP3t45-3">
          <mxGeometry width="50" height="50" relative="1" as="geometry">
            <mxPoint x="694.8523255042645" y="379.83869528271913" as="sourcePoint" />
            <mxPoint x="797.4564774644806" y="403.06344448449164" as="targetPoint" />
          </mxGeometry>
        </mxCell>
        <mxCell id="WJVr6nBHZjvNuqR42jPS-3" value="" style="endArrow=classic;html=1;rounded=0;entryX=0.5;entryY=0;entryDx=0;entryDy=0;exitX=0.25;exitY=1;exitDx=0;exitDy=0;fontSize=17;fontStyle=1" edge="1" parent="1" source="WJVr6nBHZjvNuqR42jPS-18">
          <mxGeometry width="50" height="50" relative="1" as="geometry">
            <mxPoint x="248.62995130623736" y="172.6418659487723" as="sourcePoint" />
            <mxPoint x="50.003928126807835" y="191.65400619276807" as="targetPoint" />
          </mxGeometry>
        </mxCell>
        <mxCell id="WJVr6nBHZjvNuqR42jPS-6" value="" style="endArrow=classic;html=1;rounded=0;entryX=0.5;entryY=0;entryDx=0;entryDy=0;exitX=0.25;exitY=1;exitDx=0;exitDy=0;fontSize=17;fontStyle=1" edge="1" parent="1" source="WJVr6nBHZjvNuqR42jPS-18" target="WJVr6nBHZjvNuqR42jPS-5">
          <mxGeometry width="50" height="50" relative="1" as="geometry">
            <mxPoint x="278.6299026124744" y="172.6418659487723" as="sourcePoint" />
            <mxPoint x="297.7614946299487" y="265.20831222780896" as="targetPoint" />
          </mxGeometry>
        </mxCell>
        <mxCell id="WJVr6nBHZjvNuqR42jPS-7" value="" style="endArrow=classic;html=1;rounded=0;entryX=0.5;entryY=0;entryDx=0;entryDy=0;exitX=0.25;exitY=1;exitDx=0;exitDy=0;fontSize=17;fontStyle=1;" edge="1" parent="1" source="xhpi5mrGCT5Js5KXu3N3-17" target="WJVr6nBHZjvNuqR42jPS-18">
          <mxGeometry width="50" height="50" relative="1" as="geometry">
            <mxPoint x="676.2014166104433" y="76.9768724528302" as="sourcePoint" />
            <mxPoint x="279.99990261247444" y="128.40999999999997" as="targetPoint" />
          </mxGeometry>
        </mxCell>
        <mxCell id="WJVr6nBHZjvNuqR42jPS-13" value="" style="endArrow=classic;html=1;rounded=0;entryX=0.5;entryY=0;entryDx=0;entryDy=0;exitX=0.5;exitY=1;exitDx=0;exitDy=0;fontSize=17;fontStyle=1" edge="1" parent="1" target="WJVr6nBHZjvNuqR42jPS-12" source="WJVr6nBHZjvNuqR42jPS-18">
          <mxGeometry width="50" height="50" relative="1" as="geometry">
            <mxPoint x="278.6299026124744" y="172.6418659487723" as="sourcePoint" />
            <mxPoint x="427.76149462994874" y="271.0083122278089" as="targetPoint" />
          </mxGeometry>
        </mxCell>
        <mxCell id="WJVr6nBHZjvNuqR42jPS-14" value="Ziskaj&lt;br style=&quot;font-size: 17px;&quot;&gt;Zbran" style="rounded=1;whiteSpace=wrap;html=1;fontSize=17;fontStyle=1;fillColor=#FFD966;" vertex="1" parent="1">
          <mxGeometry x="350.2199999999999" y="191.64999999999998" width="110" height="65.47" as="geometry" />
        </mxCell>
        <mxCell id="WJVr6nBHZjvNuqR42jPS-15" value="" style="endArrow=classic;html=1;rounded=0;entryX=0.5;entryY=0;entryDx=0;entryDy=0;exitX=0.75;exitY=1;exitDx=0;exitDy=0;fontSize=17;fontStyle=1" edge="1" parent="1" source="WJVr6nBHZjvNuqR42jPS-18" target="WJVr6nBHZjvNuqR42jPS-14">
          <mxGeometry width="50" height="50" relative="1" as="geometry">
            <mxPoint x="308.6298539187117" y="172.6418659487723" as="sourcePoint" />
            <mxPoint x="293.62999999999994" y="231.65999999999997" as="targetPoint" />
          </mxGeometry>
        </mxCell>
        <mxCell id="k9KmUfYsGlUjubeCrhGL-3" value="NaDosah" style="rounded=1;whiteSpace=wrap;html=1;fontSize=18;fontStyle=1;fillColor=#FFD966;" parent="1" vertex="1">
          <mxGeometry x="708.2612714375925" y="199.53999999999996" width="102.74785625361501" height="65.46155316404437" as="geometry" />
        </mxCell>
        <mxCell id="k9KmUfYsGlUjubeCrhGL-5" value="Prenasleduj" style="rounded=1;whiteSpace=wrap;html=1;fontSize=18;fontStyle=1;fillColor=#FFD966;" parent="1" vertex="1">
          <mxGeometry x="825.24" y="202.44999999999996" width="110.97" height="65.46" as="geometry" />
        </mxCell>
        <mxCell id="WJVr6nBHZjvNuqR42jPS-4" value="HracV&lt;br style=&quot;font-size: 17px;&quot;&gt;Blizkosti" style="rounded=1;whiteSpace=wrap;html=1;fontSize=17;fontStyle=1;fillColor=#FFD966;" vertex="1" parent="1">
          <mxGeometry y="192.4440061927681" width="102.74785625361501" height="65.46155316404437" as="geometry" />
        </mxCell>
        <mxCell id="WJVr6nBHZjvNuqR42jPS-5" value="MaHrac&lt;br style=&quot;font-size: 17px;&quot;&gt;Zbran" style="rounded=1;whiteSpace=wrap;html=1;fontSize=17;fontStyle=1;fillColor=#FFD966;" vertex="1" parent="1">
          <mxGeometry x="108.63" y="191.66055854494454" width="110" height="65.45944145505547" as="geometry" />
        </mxCell>
        <mxCell id="WJVr6nBHZjvNuqR42jPS-12" value="MaUIZbran" style="rounded=1;whiteSpace=wrap;html=1;fontSize=17;fontStyle=1;fillColor=#FFD966;" vertex="1" parent="1">
          <mxGeometry x="228.63" y="191.66055854494454" width="110" height="65.45944145505547" as="geometry" />
        </mxCell>
        <mxCell id="K40myK_4YShfCYtrGLyM-31" value="Strelba&lt;br&gt;Sekvencia" style="rounded=1;whiteSpace=wrap;html=1;fontSize=18;fontStyle=1;fillColor=#FFD966;" parent="1" vertex="1">
          <mxGeometry x="1010" y="120.00000000000001" width="102.75" height="58.74" as="geometry" />
        </mxCell>
        <mxCell id="xhpi5mrGCT5Js5KXu3N3-18" value="Krycia&lt;br style=&quot;font-size: 18px;&quot;&gt;Sekvencia" style="rounded=1;whiteSpace=wrap;html=1;fontSize=18;fontStyle=1;fillColor=#FFD966;" parent="1" vertex="1">
          <mxGeometry x="513.3" y="110.79999999999998" width="102.75" height="65.52" as="geometry" />
        </mxCell>
        <mxCell id="k9KmUfYsGlUjubeCrhGL-1" value="Dostihnutie&lt;br style=&quot;font-size: 17px;&quot;&gt;Sekvencia" style="rounded=1;whiteSpace=wrap;html=1;fontSize=18;fontStyle=1;fillColor=#FFD966;" parent="1" vertex="1">
          <mxGeometry x="739.9954859185691" y="120.00170030436536" width="102.74768948095715" height="67.11403096465749" as="geometry" />
        </mxCell>
        <mxCell id="WJVr6nBHZjvNuqR42jPS-18" value="NajdiZbran&lt;br&gt;Sekvencia" style="rounded=1;whiteSpace=wrap;html=1;fontSize=18;fontStyle=1;fillColor=#FFD966;" vertex="1" parent="1">
          <mxGeometry x="168.63" y="110.79999999999997" width="102.75" height="65.52" as="geometry" />
        </mxCell>
        <mxCell id="WJVr6nBHZjvNuqR42jPS-19" value="" style="endArrow=classic;html=1;rounded=0;exitX=0.25;exitY=1;exitDx=0;exitDy=0;entryX=0.5;entryY=0;entryDx=0;entryDy=0;fontSize=18;fontStyle=1" edge="1" parent="1" target="WJVr6nBHZjvNuqR42jPS-21" source="K40myK_4YShfCYtrGLyM-31">
          <mxGeometry width="50" height="50" relative="1" as="geometry">
            <mxPoint x="1025.6892328892823" y="169.54000000000002" as="sourcePoint" />
            <mxPoint x="1010.7910029505699" y="262.628544520534" as="targetPoint" />
          </mxGeometry>
        </mxCell>
        <mxCell id="WJVr6nBHZjvNuqR42jPS-20" value="" style="endArrow=classic;html=1;rounded=0;exitX=0.75;exitY=1;exitDx=0;exitDy=0;entryX=0.5;entryY=0;entryDx=0;entryDy=0;fontSize=18;fontStyle=1" edge="1" parent="1" target="WJVr6nBHZjvNuqR42jPS-22" source="K40myK_4YShfCYtrGLyM-31">
          <mxGeometry width="50" height="50" relative="1" as="geometry">
            <mxPoint x="1077.0630776297608" y="169.54000000000002" as="sourcePoint" />
            <mxPoint x="1130.6635019131209" y="262.628544520534" as="targetPoint" />
          </mxGeometry>
        </mxCell>
        <mxCell id="WJVr6nBHZjvNuqR42jPS-21" value="NaDosah" style="rounded=1;whiteSpace=wrap;html=1;fontSize=18;fontStyle=1;fillColor=#FFD966;" vertex="1" parent="1">
          <mxGeometry x="945.0012714375925" y="202.45" width="102.74785625361501" height="65.46155316404437" as="geometry" />
        </mxCell>
        <mxCell id="WJVr6nBHZjvNuqR42jPS-22" value="Strielaj" style="rounded=1;whiteSpace=wrap;html=1;fontSize=18;fontStyle=1;fillColor=#FFD966;" vertex="1" parent="1">
          <mxGeometry x="1059.9960917546114" y="202.4475162982495" width="102.74785625361501" height="65.46155316404437" as="geometry" />
        </mxCell>
        <mxCell id="WJVr6nBHZjvNuqR42jPS-24" value="" style="endArrow=classic;html=1;rounded=0;fontSize=17;fontStyle=5;entryX=0.5;entryY=0;entryDx=0;entryDy=0;" edge="1" parent="1" target="k9KmUfYsGlUjubeCrhGL-3">
          <mxGeometry width="50" height="50" relative="1" as="geometry">
            <mxPoint x="790" y="187" as="sourcePoint" />
            <mxPoint x="642.5050000000001" y="203.56000000000006" as="targetPoint" />
          </mxGeometry>
        </mxCell>
      </root>
    </mxGraphModel>
  </diagram>
</mxfile>
